<svg width="350" height="144" viewBox="0 0 350 144" fill="none" xmlns="http://www.w3.org/2000/svg">
<mask id="mask0_11497_72165" style="mask-type:alpha" maskUnits="userSpaceOnUse" x="0" y="0" width="350" height="144">
<path d="M0 8.22858C0 3.68406 3.68406 0 8.22857 0H349.714V144H8.22859C3.68408 144 0 140.316 0 135.771V8.22858Z" fill="#D9D9D9"/>
</mask>
<g mask="url(#mask0_11497_72165)">
<g opacity="0.05">
<line x1="0.25" y1="1.09278e-08" x2="0.249994" y2="144" stroke="#00050B" stroke-width="0.5"/>
<line x1="18.6562" y1="1.09278e-08" x2="18.6562" y2="144" stroke="#00050B" stroke-width="0.5"/>
<line x1="37.062" y1="1.09278e-08" x2="37.062" y2="144" stroke="#00050B" stroke-width="0.5"/>
<line x1="55.4683" y1="1.09278e-08" x2="55.4683" y2="144" stroke="#00050B" stroke-width="0.5"/>
<line x1="73.874" y1="1.09278e-08" x2="73.874" y2="144" stroke="#00050B" stroke-width="0.5"/>
<line x1="92.2803" y1="1.09278e-08" x2="92.2803" y2="144" stroke="#00050B" stroke-width="0.5"/>
<line x1="110.686" y1="1.09278e-08" x2="110.686" y2="144" stroke="#00050B" stroke-width="0.5"/>
<line x1="129.092" y1="1.09278e-08" x2="129.092" y2="144" stroke="#00050B" stroke-width="0.5"/>
<line x1="147.498" y1="1.09278e-08" x2="147.498" y2="144" stroke="#00050B" stroke-width="0.5"/>
<line x1="165.904" y1="1.09278e-08" x2="165.904" y2="144" stroke="#00050B" stroke-width="0.5"/>
<line x1="184.31" y1="1.09278e-08" x2="184.31" y2="144" stroke="#00050B" stroke-width="0.5"/>
<line x1="202.716" y1="1.09278e-08" x2="202.716" y2="144" stroke="#00050B" stroke-width="0.5"/>
<line x1="221.122" y1="1.09278e-08" x2="221.122" y2="144" stroke="#00050B" stroke-width="0.5"/>
<line x1="239.528" y1="1.09278e-08" x2="239.528" y2="144" stroke="#00050B" stroke-width="0.5"/>
<line x1="257.934" y1="1.09278e-08" x2="257.934" y2="144" stroke="#00050B" stroke-width="0.5"/>
<line x1="276.34" y1="1.09278e-08" x2="276.34" y2="144" stroke="#00050B" stroke-width="0.5"/>
<line x1="294.746" y1="1.09278e-08" x2="294.746" y2="144" stroke="#00050B" stroke-width="0.5"/>
<line x1="313.152" y1="1.09278e-08" x2="313.152" y2="144" stroke="#00050B" stroke-width="0.5"/>
<line x1="331.558" y1="1.09278e-08" x2="331.558" y2="144" stroke="#00050B" stroke-width="0.5"/>
<line x1="349.714" y1="0.25" x2="6.09979e-05" y2="0.249978" stroke="#00050B" stroke-width="0.5"/>
<line x1="349.714" y1="16.25" x2="6.09979e-05" y2="16.25" stroke="#00050B" stroke-width="0.5"/>
<line x1="349.714" y1="32.25" x2="6.09979e-05" y2="32.25" stroke="#00050B" stroke-width="0.5"/>
<line x1="349.714" y1="48.25" x2="6.09979e-05" y2="48.25" stroke="#00050B" stroke-width="0.5"/>
<line x1="349.714" y1="64.25" x2="6.09979e-05" y2="64.25" stroke="#00050B" stroke-width="0.5"/>
<line x1="349.714" y1="80.25" x2="6.09979e-05" y2="80.25" stroke="#00050B" stroke-width="0.5"/>
<line x1="349.714" y1="96.25" x2="6.09979e-05" y2="96.25" stroke="#00050B" stroke-width="0.5"/>
<line x1="349.714" y1="112.25" x2="6.09979e-05" y2="112.25" stroke="#00050B" stroke-width="0.5"/>
<line x1="349.714" y1="128.25" x2="6.09979e-05" y2="128.25" stroke="#00050B" stroke-width="0.5"/>
</g>
<g filter="url(#filter0_f_11497_72165)">
<path d="M291.403 28.5781V27.2397L294.531 24.3441C294.797 24.0867 295.02 23.8551 295.2 23.6492C295.383 23.4433 295.521 23.2416 295.616 23.0443C295.71 22.8441 295.757 22.6282 295.757 22.3966C295.757 22.1392 295.699 21.9175 295.582 21.7316C295.464 21.5429 295.304 21.3985 295.101 21.2984C294.898 21.1954 294.668 21.1439 294.41 21.1439C294.142 21.1439 293.907 21.1983 293.707 21.307C293.507 21.4156 293.352 21.5715 293.244 21.7745C293.135 21.9776 293.081 22.2193 293.081 22.4995H291.318C291.318 21.9247 291.448 21.4256 291.708 21.0024C291.968 20.5791 292.333 20.2517 292.802 20.02C293.271 19.7884 293.811 19.6726 294.423 19.6726C295.052 19.6726 295.6 19.7841 296.066 20.0072C296.535 20.2274 296.9 20.5334 297.16 20.9252C297.42 21.317 297.551 21.766 297.551 22.2722C297.551 22.6039 297.485 22.9314 297.353 23.2545C297.225 23.5777 296.994 23.9366 296.663 24.3313C296.331 24.723 295.863 25.1935 295.26 25.7426L293.977 26.9995V27.0595H297.666V28.5781H291.403ZM302.221 28.6982C301.615 28.6982 301.074 28.5867 300.6 28.3636C300.128 28.1406 299.753 27.8331 299.476 27.4413C299.198 27.0495 299.054 26.6005 299.042 26.0943H300.844C300.864 26.4347 301.007 26.7106 301.273 26.9223C301.539 27.1339 301.855 27.2397 302.221 27.2397C302.513 27.2397 302.77 27.1754 302.993 27.0467C303.219 26.9151 303.395 26.7335 303.521 26.5019C303.65 26.2674 303.714 25.9985 303.714 25.6954C303.714 25.3865 303.648 25.1148 303.517 24.8803C303.388 24.6458 303.209 24.4628 302.98 24.3313C302.752 24.1997 302.49 24.1325 302.195 24.1296C301.938 24.1296 301.688 24.1825 301.445 24.2884C301.204 24.3942 301.017 24.5386 300.883 24.7216L299.231 24.4256L299.647 19.7927H305.018V21.3113H301.179L300.951 23.5119H301.003C301.157 23.2946 301.39 23.1144 301.702 22.9714C302.014 22.8284 302.363 22.7569 302.749 22.7569C303.278 22.7569 303.75 22.8813 304.164 23.1301C304.579 23.3789 304.906 23.7207 305.147 24.1554C305.387 24.5872 305.506 25.0848 305.503 25.6482C305.506 26.2402 305.368 26.7664 305.091 27.2268C304.816 27.6844 304.432 28.0448 303.937 28.3079C303.445 28.5681 302.873 28.6982 302.221 28.6982ZM310.243 28.7712C309.505 28.7683 308.87 28.5867 308.338 28.2264C307.809 27.866 307.402 27.3441 307.116 26.6606C306.833 25.9771 306.692 25.1549 306.695 24.194C306.695 23.2359 306.837 22.4194 307.12 21.7445C307.406 21.0696 307.813 20.5562 308.343 20.2045C308.874 19.8499 309.508 19.6726 310.243 19.6726C310.978 19.6726 311.61 19.8499 312.139 20.2045C312.671 20.5591 313.08 21.0739 313.366 21.7488C313.652 22.4209 313.793 23.2359 313.791 24.194C313.791 25.1577 313.648 25.9814 313.362 26.6649C313.078 27.3484 312.672 27.8703 312.143 28.2307C311.614 28.591 310.981 28.7712 310.243 28.7712ZM310.243 27.2311C310.746 27.2311 311.148 26.978 311.448 26.4718C311.749 25.9657 311.897 25.2064 311.894 24.194C311.894 23.5276 311.826 22.9728 311.689 22.5295C311.554 22.0863 311.363 21.7531 311.114 21.53C310.868 21.307 310.578 21.1954 310.243 21.1954C309.742 21.1954 309.342 21.4457 309.042 21.9461C308.742 22.4466 308.59 23.1959 308.587 24.194C308.587 24.8689 308.654 25.4323 308.789 25.8841C308.926 26.3331 309.119 26.6706 309.368 26.8965C309.617 27.1196 309.908 27.2311 310.243 27.2311ZM318.56 28.7712C317.822 28.7683 317.187 28.5867 316.655 28.2264C316.126 27.866 315.718 27.3441 315.432 26.6606C315.149 25.9771 315.009 25.1549 315.012 24.194C315.012 23.2359 315.154 22.4194 315.437 21.7445C315.723 21.0696 316.13 20.5562 316.659 20.2045C317.191 19.8499 317.825 19.6726 318.56 19.6726C319.295 19.6726 319.927 19.8499 320.456 20.2045C320.988 20.5591 321.397 21.0739 321.683 21.7488C321.969 22.4209 322.11 23.2359 322.107 24.194C322.107 25.1577 321.964 25.9814 321.678 26.6649C321.395 27.3484 320.989 27.8703 320.46 28.2307C319.931 28.591 319.298 28.7712 318.56 28.7712ZM318.56 27.2311C319.063 27.2311 319.465 26.978 319.765 26.4718C320.065 25.9657 320.214 25.2064 320.211 24.194C320.211 23.5276 320.143 22.9728 320.005 22.5295C319.871 22.0863 319.679 21.7531 319.431 21.53C319.185 21.307 318.894 21.1954 318.56 21.1954C318.059 21.1954 317.659 21.4457 317.359 21.9461C317.058 22.4466 316.907 23.1959 316.904 24.194C316.904 24.8689 316.971 25.4323 317.105 25.8841C317.243 26.3331 317.436 26.6706 317.685 26.8965C317.933 27.1196 318.225 27.2311 318.56 27.2311Z" fill="#00050B" fill-opacity="0.7"/>
<path d="M260.691 36.1709C260.658 35.8437 260.514 35.5836 260.258 35.3904C260.001 35.1972 259.679 35.1006 259.291 35.1006C259.017 35.1006 258.776 35.1475 258.568 35.2412C258.361 35.3349 258.198 35.465 258.08 35.6314C257.963 35.7959 257.905 35.9834 257.905 36.1938C257.905 36.3488 257.938 36.4846 258.005 36.6013C258.072 36.7179 258.162 36.8184 258.275 36.9025C258.39 36.9848 258.516 37.0556 258.654 37.1149C258.793 37.1742 258.934 37.2239 259.075 37.2641L259.695 37.442C259.883 37.4936 260.07 37.5596 260.258 37.6399C260.445 37.7203 260.616 37.8217 260.771 37.9441C260.928 38.0646 261.053 38.2129 261.147 38.3888C261.243 38.5629 261.291 38.7724 261.291 39.0172C261.291 39.3309 261.209 39.6131 261.047 39.8637C260.884 40.1143 260.651 40.3132 260.347 40.4605C260.042 40.6059 259.678 40.6786 259.253 40.6786C258.854 40.6786 258.506 40.6126 258.212 40.4806C257.917 40.3467 257.686 40.1621 257.517 39.9268C257.349 39.6915 257.254 39.4189 257.233 39.109H257.784C257.803 39.3405 257.88 39.5366 258.014 39.6972C258.148 39.8579 258.322 39.9804 258.536 40.0645C258.75 40.1468 258.989 40.1879 259.253 40.1879C259.546 40.1879 259.806 40.1391 260.034 40.0416C260.263 39.9421 260.443 39.8044 260.573 39.6284C260.705 39.4505 260.771 39.2439 260.771 39.0086C260.771 38.8097 260.72 38.6432 260.616 38.5093C260.513 38.3735 260.369 38.2597 260.183 38.1679C259.999 38.0761 259.786 37.9948 259.543 37.924L258.84 37.7174C258.379 37.5797 258.021 37.3894 257.767 37.1464C257.513 36.9035 257.385 36.5936 257.385 36.2168C257.385 35.9011 257.47 35.6238 257.638 35.3847C257.808 35.1436 258.038 34.9562 258.327 34.8223C258.617 34.6865 258.943 34.6186 259.305 34.6186C259.67 34.6186 259.994 34.6855 260.275 34.8194C260.556 34.9533 260.779 35.1379 260.943 35.3732C261.11 35.6066 261.199 35.8724 261.21 36.1709H260.691ZM263.707 40.6786C263.441 40.6786 263.198 40.6269 262.978 40.5236C262.758 40.4184 262.583 40.2673 262.453 40.0703C262.323 39.8713 262.258 39.6303 262.258 39.3472C262.258 39.1291 262.299 38.9455 262.381 38.7963C262.463 38.6471 262.58 38.5246 262.731 38.429C262.882 38.3334 263.061 38.2578 263.268 38.2023C263.474 38.1469 263.702 38.1038 263.95 38.0732C264.197 38.0426 264.406 38.0158 264.576 37.9929C264.748 37.9699 264.879 37.9336 264.969 37.8838C265.059 37.8341 265.104 37.7538 265.104 37.6428V37.5395C265.104 37.2392 265.014 37.003 264.834 36.8308C264.656 36.6567 264.4 36.5697 264.065 36.5697C263.748 36.5697 263.488 36.6395 263.288 36.7791C263.089 36.9188 262.949 37.0833 262.869 37.2727L262.384 37.0976C262.483 36.8566 262.621 36.6644 262.797 36.5209C262.973 36.3755 263.17 36.2713 263.388 36.2082C263.606 36.1431 263.827 36.1106 264.051 36.1106C264.219 36.1106 264.394 36.1326 264.576 36.1766C264.76 36.2206 264.93 36.2971 265.087 36.4061C265.244 36.5133 265.371 36.6634 265.468 36.8566C265.566 37.0479 265.615 37.2908 265.615 37.5854V40.5781H265.104V39.8809H265.072C265.011 40.011 264.92 40.1372 264.8 40.2596C264.679 40.3821 264.528 40.4825 264.346 40.5609C264.165 40.6393 263.951 40.6786 263.707 40.6786ZM263.775 40.2109C264.047 40.2109 264.282 40.1506 264.481 40.0301C264.68 39.9096 264.833 39.7498 264.94 39.5509C265.049 39.3501 265.104 39.1291 265.104 38.8881V38.2511C265.066 38.2875 265.002 38.32 264.912 38.3487C264.824 38.3774 264.721 38.4032 264.605 38.4261C264.49 38.4472 264.375 38.4654 264.26 38.4807C264.146 38.496 264.042 38.5093 263.95 38.5208C263.702 38.5514 263.489 38.5993 263.313 38.6643C263.137 38.7293 263.003 38.8192 262.909 38.934C262.815 39.0469 262.768 39.1922 262.768 39.3701C262.768 39.6379 262.864 39.8455 263.055 39.9928C263.246 40.1382 263.487 40.2109 263.775 40.2109ZM270.227 36.1709L268.617 40.5781H268.072L266.462 36.1709H267.016L268.325 39.9038H268.365L269.673 36.1709H270.227ZM272.85 40.6699C272.439 40.6699 272.083 40.5743 271.783 40.383C271.483 40.1898 271.25 39.923 271.086 39.5825C270.923 39.2401 270.842 38.846 270.842 38.4003C270.842 37.9565 270.923 37.5625 271.086 37.2182C271.25 36.8719 271.477 36.6012 271.766 36.4061C272.056 36.2091 272.392 36.1106 272.773 36.1106C273.012 36.1106 273.242 36.1546 273.464 36.2426C273.686 36.3287 273.885 36.4616 274.061 36.6414C274.239 36.8193 274.38 37.0441 274.483 37.3157C274.586 37.5854 274.638 37.9049 274.638 38.2741V38.5266H271.195V38.0761H274.116C274.116 37.793 274.058 37.5386 273.944 37.3128C273.831 37.0852 273.673 36.9054 273.47 36.7734C273.269 36.6414 273.037 36.5754 272.773 36.5754C272.494 36.5754 272.248 36.65 272.035 36.7992C271.823 36.9484 271.657 37.1455 271.536 37.3903C271.418 37.6352 271.357 37.903 271.355 38.1937V38.4634C271.355 38.8135 271.416 39.1196 271.536 39.3816C271.659 39.6418 271.832 39.8436 272.056 39.987C272.279 40.1305 272.544 40.2022 272.85 40.2022C273.059 40.2022 273.242 40.1697 273.398 40.1047C273.557 40.0396 273.69 39.9526 273.797 39.8436C273.906 39.7326 273.988 39.6112 274.044 39.4792L274.529 39.637C274.462 39.8225 274.352 39.9937 274.199 40.1506C274.048 40.3075 273.858 40.4337 273.631 40.5293C273.405 40.6231 273.145 40.6699 272.85 40.6699ZM276.994 40.6786C276.728 40.6786 276.486 40.6269 276.266 40.5236C276.046 40.4184 275.871 40.2673 275.74 40.0703C275.61 39.8713 275.545 39.6303 275.545 39.3472C275.545 39.1291 275.586 38.9455 275.669 38.7963C275.751 38.6471 275.868 38.5246 276.019 38.429C276.17 38.3334 276.349 38.2578 276.555 38.2023C276.762 38.1469 276.99 38.1038 277.238 38.0732C277.485 38.0426 277.693 38.0158 277.864 37.9929C278.036 37.9699 278.167 37.9336 278.257 37.8838C278.347 37.8341 278.392 37.7538 278.392 37.6428V37.5395C278.392 37.2392 278.302 37.003 278.122 36.8308C277.944 36.6567 277.688 36.5697 277.353 36.5697C277.035 36.5697 276.776 36.6395 276.575 36.7791C276.376 36.9188 276.237 37.0833 276.156 37.2727L275.672 37.0976C275.771 36.8566 275.909 36.6644 276.085 36.5209C276.261 36.3755 276.458 36.2713 276.676 36.2082C276.894 36.1431 277.115 36.1106 277.339 36.1106C277.507 36.1106 277.682 36.1326 277.864 36.1766C278.047 36.2206 278.218 36.2971 278.374 36.4061C278.531 36.5133 278.659 36.6634 278.756 36.8566C278.854 37.0479 278.902 37.2908 278.902 37.5854V40.5781H278.392V39.8809H278.36C278.299 40.011 278.208 40.1372 278.088 40.2596C277.967 40.3821 277.816 40.4825 277.634 40.5609C277.452 40.6393 277.239 40.6786 276.994 40.6786ZM277.063 40.2109C277.335 40.2109 277.57 40.1506 277.769 40.0301C277.968 39.9096 278.121 39.7498 278.228 39.5509C278.337 39.3501 278.392 39.1291 278.392 38.8881V38.2511C278.353 38.2875 278.289 38.32 278.199 38.3487C278.111 38.3774 278.009 38.4032 277.892 38.4261C277.778 38.4472 277.663 38.4654 277.548 38.4807C277.433 38.496 277.33 38.5093 277.238 38.5208C276.99 38.5514 276.777 38.5993 276.601 38.6643C276.425 38.7293 276.29 38.8192 276.197 38.934C276.103 39.0469 276.056 39.1922 276.056 39.3701C276.056 39.6379 276.152 39.8455 276.343 39.9928C276.534 40.1382 276.774 40.2109 277.063 40.2109ZM280.367 40.5781V34.7018H280.881V37.0116H280.927C280.984 36.8796 281.066 36.7438 281.173 36.6041C281.283 36.4645 281.425 36.3478 281.601 36.2541C281.779 36.1584 282.003 36.1106 282.272 36.1106C282.634 36.1106 282.952 36.2062 283.225 36.3975C283.499 36.5869 283.712 36.8528 283.865 37.1952C284.018 37.5357 284.094 37.9326 284.094 38.386C284.094 38.8412 284.018 39.2401 283.865 39.5825C283.714 39.9249 283.501 40.1917 283.228 40.383C282.956 40.5743 282.641 40.6699 282.281 40.6699C282.013 40.6699 281.789 40.6221 281.61 40.5265C281.432 40.4308 281.288 40.3132 281.179 40.1736C281.07 40.032 280.986 39.8943 280.927 39.7604H280.864V40.5781H280.367ZM280.872 38.3774C280.872 38.7332 280.925 39.0488 281.03 39.3242C281.137 39.5978 281.29 39.813 281.489 39.9698C281.69 40.1248 281.933 40.2022 282.218 40.2022C282.511 40.2022 282.758 40.1219 282.961 39.9612C283.164 39.7986 283.318 39.5796 283.423 39.3041C283.528 39.0287 283.581 38.7198 283.581 38.3774C283.581 38.0388 283.528 37.7337 283.423 37.462C283.32 37.1904 283.167 36.9752 282.964 36.8164C282.761 36.6558 282.513 36.5754 282.218 36.5754C281.931 36.5754 281.687 36.6529 281.486 36.8078C281.287 36.9609 281.135 37.1732 281.03 37.4448C280.925 37.7145 280.872 38.0254 280.872 38.3774ZM285.727 34.7018V40.5781H285.216V34.7018H285.727ZM288.86 40.6699C288.449 40.6699 288.093 40.5743 287.793 40.383C287.493 40.1898 287.26 39.923 287.096 39.5825C286.933 39.2401 286.852 38.846 286.852 38.4003C286.852 37.9565 286.933 37.5625 287.096 37.2182C287.26 36.8719 287.487 36.6012 287.776 36.4061C288.067 36.2091 288.402 36.1106 288.783 36.1106C289.022 36.1106 289.253 36.1546 289.474 36.2426C289.696 36.3287 289.895 36.4616 290.071 36.6414C290.249 36.8193 290.39 37.0441 290.493 37.3157C290.596 37.5854 290.648 37.9049 290.648 38.2741V38.5266H287.205V38.0761H290.126C290.126 37.793 290.068 37.5386 289.954 37.3128C289.841 37.0852 289.683 36.9054 289.48 36.7734C289.279 36.6414 289.047 36.5754 288.783 36.5754C288.504 36.5754 288.258 36.65 288.046 36.7992C287.833 36.9484 287.667 37.1455 287.546 37.3903C287.428 37.6352 287.367 37.903 287.365 38.1937V38.4634C287.365 38.8135 287.426 39.1196 287.546 39.3816C287.669 39.6418 287.842 39.8436 288.066 39.987C288.289 40.1305 288.554 40.2022 288.86 40.2022C289.069 40.2022 289.252 40.1697 289.408 40.1047C289.567 40.0396 289.7 39.9526 289.807 39.8436C289.916 39.7326 289.999 39.6112 290.054 39.4792L290.539 39.637C290.472 39.8225 290.362 39.9937 290.209 40.1506C290.058 40.3075 289.868 40.4337 289.641 40.5293C289.415 40.6231 289.155 40.6699 288.86 40.6699ZM294.046 40.5781V36.1709H294.542V36.848H294.58C294.668 36.6261 294.821 36.4473 295.039 36.3114C295.259 36.1737 295.507 36.1049 295.785 36.1049C295.827 36.1049 295.874 36.1058 295.925 36.1077C295.977 36.1096 296.02 36.1116 296.054 36.1135V36.6328C296.032 36.629 295.991 36.6232 295.934 36.6156C295.877 36.6079 295.814 36.6041 295.747 36.6041C295.518 36.6041 295.313 36.6529 295.133 36.7505C294.956 36.8461 294.815 36.979 294.712 37.1493C294.608 37.3195 294.557 37.5137 294.557 37.7318V40.5781H294.046ZM298.574 40.6699C298.162 40.6699 297.807 40.5743 297.506 40.383C297.206 40.1898 296.974 39.923 296.809 39.5825C296.647 39.2401 296.565 38.846 296.565 38.4003C296.565 37.9565 296.647 37.5625 296.809 37.2182C296.974 36.8719 297.2 36.6012 297.489 36.4061C297.78 36.2091 298.116 36.1106 298.496 36.1106C298.735 36.1106 298.966 36.1546 299.188 36.2426C299.41 36.3287 299.609 36.4616 299.785 36.6414C299.963 36.8193 300.103 37.0441 300.206 37.3157C300.31 37.5854 300.361 37.9049 300.361 38.2741V38.5266H296.918V38.0761H299.839C299.839 37.793 299.782 37.5386 299.667 37.3128C299.554 37.0852 299.396 36.9054 299.194 36.7734C298.993 36.6414 298.76 36.5754 298.496 36.5754C298.217 36.5754 297.971 36.65 297.759 36.7992C297.547 36.9484 297.38 37.1455 297.26 37.3903C297.141 37.6352 297.081 37.903 297.079 38.1937V38.4634C297.079 38.8135 297.139 39.1196 297.26 39.3816C297.382 39.6418 297.555 39.8436 297.779 39.987C298.003 40.1305 298.268 40.2022 298.574 40.2022C298.782 40.2022 298.965 40.1697 299.122 40.1047C299.281 40.0396 299.414 39.9526 299.521 39.8436C299.63 39.7326 299.712 39.6112 299.767 39.4792L300.252 39.637C300.185 39.8225 300.075 39.9937 299.922 40.1506C299.771 40.3075 299.582 40.4337 299.354 40.5293C299.128 40.6231 298.868 40.6699 298.574 40.6699ZM304.474 42.2309V39.7604H304.428C304.369 39.8943 304.284 40.032 304.175 40.1736C304.066 40.3132 303.922 40.4308 303.742 40.5265C303.562 40.6221 303.339 40.6699 303.074 40.6699C302.714 40.6699 302.397 40.5743 302.124 40.383C301.852 40.1917 301.64 39.9249 301.487 39.5825C301.336 39.2401 301.26 38.8412 301.26 38.386C301.26 37.9326 301.336 37.5357 301.487 37.1952C301.64 36.8528 301.853 36.5869 302.127 36.3975C302.4 36.2062 302.719 36.1106 303.082 36.1106C303.352 36.1106 303.575 36.1584 303.751 36.2541C303.929 36.3497 304.071 36.4673 304.178 36.607C304.285 36.7447 304.369 36.8796 304.428 37.0116H304.488V36.1709H304.987V42.2309H304.474ZM303.134 40.2022C303.419 40.2022 303.662 40.1248 303.863 39.9698C304.063 39.813 304.217 39.5978 304.322 39.3242C304.429 39.0488 304.482 38.7332 304.482 38.3774C304.482 38.0254 304.43 37.7145 304.325 37.4448C304.219 37.1732 304.066 36.9609 303.865 36.8078C303.667 36.6529 303.423 36.5754 303.134 36.5754C302.839 36.5754 302.591 36.6558 302.388 36.8164C302.185 36.9752 302.032 37.1904 301.929 37.462C301.825 37.7337 301.774 38.0388 301.774 38.3774C301.774 38.7198 301.826 39.0287 301.932 39.3041C302.037 39.5796 302.191 39.7986 302.394 39.9612C302.596 40.1219 302.843 40.2022 303.134 40.2022ZM309.132 38.8938V36.1709H309.643V40.5781H309.132V39.8464H309.092C308.989 40.0722 308.825 40.2606 308.601 40.4117C308.377 40.5609 308.104 40.6355 307.781 40.6355C307.499 40.6355 307.25 40.5743 307.032 40.4519C306.814 40.3275 306.643 40.1458 306.518 39.9067C306.394 39.6676 306.332 39.374 306.332 39.0258V36.1709H306.842V38.9943C306.842 39.3386 306.944 39.6159 307.147 39.8264C307.349 40.0349 307.609 40.1391 307.927 40.1391C308.126 40.1391 308.317 40.0913 308.501 39.9957C308.685 39.9 308.836 39.7604 308.954 39.5767C309.073 39.3912 309.132 39.1636 309.132 38.8938ZM312.777 40.6699C312.366 40.6699 312.01 40.5743 311.709 40.383C311.409 40.1898 311.177 39.923 311.012 39.5825C310.85 39.2401 310.768 38.846 310.768 38.4003C310.768 37.9565 310.85 37.5625 311.012 37.2182C311.177 36.8719 311.403 36.6012 311.692 36.4061C311.983 36.2091 312.319 36.1106 312.699 36.1106C312.939 36.1106 313.169 36.1546 313.391 36.2426C313.613 36.3287 313.812 36.4616 313.988 36.6414C314.166 36.8193 314.306 37.0441 314.41 37.3157C314.513 37.5854 314.564 37.9049 314.564 38.2741V38.5266H311.121V38.0761H314.042C314.042 37.793 313.985 37.5386 313.87 37.3128C313.757 37.0852 313.599 36.9054 313.397 36.7734C313.196 36.6414 312.963 36.5754 312.699 36.5754C312.42 36.5754 312.174 36.65 311.962 36.7992C311.75 36.9484 311.583 37.1455 311.463 37.3903C311.344 37.6352 311.284 37.903 311.282 38.1937V38.4634C311.282 38.8135 311.342 39.1196 311.463 39.3816C311.585 39.6418 311.758 39.8436 311.982 39.987C312.206 40.1305 312.471 40.2022 312.777 40.2022C312.985 40.2022 313.168 40.1697 313.325 40.1047C313.484 40.0396 313.617 39.9526 313.724 39.8436C313.833 39.7326 313.915 39.6112 313.971 39.4792L314.455 39.637C314.388 39.8225 314.278 39.9937 314.125 40.1506C313.974 40.3075 313.785 40.4337 313.557 40.5293C313.332 40.6231 313.071 40.6699 312.777 40.6699ZM318.651 37.1378L318.183 37.2698C318.137 37.1378 318.072 37.0183 317.988 36.9111C317.904 36.804 317.794 36.7189 317.658 36.6558C317.524 36.5926 317.358 36.5611 317.159 36.5611C316.861 36.5611 316.616 36.6319 316.424 36.7734C316.233 36.915 316.138 37.0976 316.138 37.3214C316.138 37.5108 316.203 37.6648 316.333 37.7834C316.465 37.9001 316.667 37.9929 316.941 38.0617L317.607 38.2253C317.976 38.3152 318.252 38.4577 318.436 38.6528C318.621 38.8479 318.714 39.0928 318.714 39.3874C318.714 39.636 318.645 39.857 318.508 40.0502C318.37 40.2434 318.178 40.3954 317.931 40.5064C317.686 40.6154 317.402 40.6699 317.079 40.6699C316.648 40.6699 316.293 40.5733 316.014 40.3801C315.735 40.185 315.556 39.9038 315.478 39.5366L315.968 39.4161C316.031 39.6781 316.155 39.8761 316.338 40.01C316.524 40.1439 316.768 40.2109 317.07 40.2109C317.409 40.2109 317.679 40.1353 317.882 39.9842C318.085 39.8311 318.186 39.6399 318.186 39.4103C318.186 39.2324 318.127 39.0832 318.008 38.9627C317.89 38.8403 317.71 38.7504 317.469 38.693L316.749 38.5208C316.366 38.429 316.083 38.2836 315.899 38.0847C315.716 37.8857 315.624 37.639 315.624 37.3444C315.624 37.1015 315.69 36.8882 315.822 36.7045C315.954 36.519 316.136 36.3736 316.367 36.2684C316.599 36.1632 316.863 36.1106 317.159 36.1106C317.563 36.1106 317.885 36.2024 318.126 36.3861C318.369 36.5678 318.544 36.8184 318.651 37.1378ZM321.568 36.1709V36.6156H319.465V36.1709H321.568ZM320.122 35.1149H320.636V39.4275C320.636 39.6112 320.668 39.7556 320.731 39.8608C320.794 39.9641 320.876 40.0377 320.977 40.0817C321.079 40.1238 321.187 40.1449 321.302 40.1449C321.369 40.1449 321.426 40.141 321.474 40.1334C321.522 40.1238 321.564 40.1143 321.6 40.1047L321.709 40.5666C321.659 40.5858 321.598 40.603 321.525 40.6183C321.453 40.6355 321.363 40.6441 321.256 40.6441C321.068 40.6441 320.887 40.603 320.713 40.5207C320.541 40.4385 320.4 40.3161 320.289 40.1535C320.178 39.9909 320.122 39.7891 320.122 39.548V35.1149Z" fill="#00050B" fill-opacity="0.3"/>
</g>
<rect x="213.75" y="54.25" width="46.5" height="123.5" rx="3.75" transform="rotate(90 213.75 54.25)" fill="#2588E4" fill-opacity="0.075" stroke="#2588E4" stroke-width="0.5"/>
<g filter="url(#filter1_f_11497_72165)">
<rect x="81" y="54" width="47" height="87" rx="4" transform="rotate(90 81 54)" fill="#21FA90" fill-opacity="0.075"/>
<rect x="80.75" y="54.25" width="46.5" height="86.5" rx="3.75" transform="rotate(90 80.75 54.25)" stroke="#21FA90" stroke-width="0.5"/>
</g>
<g filter="url(#filter2_f_11497_72165)">
<rect x="0.25" y="-0.25" width="137.5" height="46.5" rx="3.75" transform="matrix(1 0 0 -1 221 100.5)" stroke="#00050B" stroke-opacity="0.3" stroke-width="0.5"/>
</g>
<path d="M86.0073 18L86.0073 116" stroke="#00050B" stroke-opacity="0.3" stroke-width="0.75" stroke-dasharray="4 4"/>
<path d="M217.008 18L217.008 116" stroke="#00050B" stroke-opacity="0.3" stroke-width="0.75" stroke-dasharray="4 4"/>
<rect x="349.714" y="144" width="145.029" height="144" transform="rotate(-180 349.714 144)" fill="url(#paint0_linear_11497_72165)"/>
<path d="M53.9243 19.7927V28.5781H52.0668V21.5558H52.0153L50.0034 22.817V21.1697L52.1783 19.7927H53.9243ZM59.221 28.6982C58.6148 28.6982 58.0742 28.5867 57.5995 28.3636C57.1276 28.1406 56.753 27.8331 56.4756 27.4413C56.1982 27.0495 56.0538 26.6005 56.0423 26.0943H57.844C57.864 26.4347 58.007 26.7106 58.273 26.9223C58.539 27.1339 58.855 27.2397 59.221 27.2397C59.5128 27.2397 59.7701 27.1754 59.9932 27.0467C60.2191 26.9151 60.395 26.7335 60.5208 26.5019C60.6495 26.2674 60.7139 25.9985 60.7139 25.6954C60.7139 25.3865 60.6481 25.1148 60.5166 24.8803C60.3879 24.6458 60.2091 24.4628 59.9803 24.3313C59.7516 24.1997 59.4899 24.1325 59.1953 24.1296C58.9379 24.1296 58.6877 24.1825 58.4446 24.2884C58.2044 24.3942 58.0171 24.5386 57.8826 24.7216L56.2311 24.4256L56.6472 19.7927H62.018V21.3113H58.1786L57.9513 23.5119H58.0028C58.1572 23.2946 58.3903 23.1144 58.702 22.9714C59.0137 22.8284 59.3626 22.7569 59.7487 22.7569C60.2778 22.7569 60.7496 22.8813 61.1643 23.1301C61.579 23.3789 61.9064 23.7207 62.1467 24.1554C62.3869 24.5872 62.5056 25.0848 62.5027 25.6482C62.5056 26.2402 62.3683 26.7664 62.0909 27.2268C61.8164 27.6844 61.4317 28.0448 60.937 28.3079C60.4451 28.5681 59.8731 28.6982 59.221 28.6982ZM67.2429 28.7712C66.5051 28.7683 65.8702 28.5867 65.3383 28.2264C64.8092 27.866 64.4017 27.3441 64.1157 26.6606C63.8326 25.9771 63.6924 25.1549 63.6953 24.194C63.6953 23.2359 63.8368 22.4194 64.12 21.7445C64.406 21.0696 64.8135 20.5562 65.3426 20.2045C65.8745 19.8499 66.5079 19.6726 67.2429 19.6726C67.9779 19.6726 68.6099 19.8499 69.139 20.2045C69.6709 20.5591 70.0799 21.0739 70.3659 21.7488C70.6519 22.4209 70.7934 23.2359 70.7906 24.194C70.7906 25.1577 70.6476 25.9814 70.3616 26.6649C70.0785 27.3484 69.6724 27.8703 69.1433 28.2307C68.6142 28.591 67.9808 28.7712 67.2429 28.7712ZM67.2429 27.2311C67.7463 27.2311 68.1481 26.978 68.4483 26.4718C68.7486 25.9657 68.8973 25.2064 68.8945 24.194C68.8945 23.5276 68.8258 22.9728 68.6886 22.5295C68.5542 22.0863 68.3626 21.7531 68.1137 21.53C67.8678 21.307 67.5775 21.1954 67.2429 21.1954C66.7424 21.1954 66.3421 21.4457 66.0418 21.9461C65.7415 22.4466 65.5899 23.1959 65.5871 24.194C65.5871 24.8689 65.6543 25.4323 65.7887 25.8841C65.926 26.3331 66.119 26.6706 66.3678 26.8965C66.6166 27.1196 66.9083 27.2311 67.2429 27.2311ZM75.5597 28.7712C74.8219 28.7683 74.187 28.5867 73.6551 28.2264C73.126 27.866 72.7185 27.3441 72.4325 26.6606C72.1494 25.9771 72.0092 25.1549 72.0121 24.194C72.0121 23.2359 72.1536 22.4194 72.4368 21.7445C72.7228 21.0696 73.1303 20.5562 73.6594 20.2045C74.1913 19.8499 74.8247 19.6726 75.5597 19.6726C76.2947 19.6726 76.9267 19.8499 77.4558 20.2045C77.9877 20.5591 78.3967 21.0739 78.6827 21.7488C78.9687 22.4209 79.1102 23.2359 79.1074 24.194C79.1074 25.1577 78.9644 25.9814 78.6784 26.6649C78.3953 27.3484 77.9892 27.8703 77.4601 28.2307C76.931 28.591 76.2976 28.7712 75.5597 28.7712ZM75.5597 27.2311C76.0631 27.2311 76.4649 26.978 76.7651 26.4718C77.0654 25.9657 77.2141 25.2064 77.2113 24.194C77.2113 23.5276 77.1426 22.9728 77.0054 22.5295C76.871 22.0863 76.6794 21.7531 76.4305 21.53C76.1846 21.307 75.8943 21.1954 75.5597 21.1954C75.0592 21.1954 74.6589 21.4457 74.3586 21.9461C74.0583 22.4466 73.9067 23.1959 73.9039 24.194C73.9039 24.8689 73.9711 25.4323 74.1055 25.8841C74.2428 26.3331 74.4358 26.6706 74.6846 26.8965C74.9334 27.1196 75.2251 27.2311 75.5597 27.2311Z" fill="#00050B" fill-opacity="0.7"/>
<path d="M22.6909 36.1709C22.6583 35.8437 22.5139 35.5836 22.2576 35.3904C22.0013 35.1972 21.679 35.1006 21.2906 35.1006C21.0171 35.1006 20.7761 35.1475 20.5676 35.2412C20.361 35.3349 20.1984 35.465 20.0798 35.6314C19.9631 35.7959 19.9048 35.9834 19.9048 36.1938C19.9048 36.3488 19.9382 36.4846 20.0052 36.6013C20.0721 36.7179 20.162 36.8184 20.2749 36.9025C20.3897 36.9848 20.5159 37.0556 20.6536 37.1149C20.7933 37.1742 20.9339 37.2239 21.0754 37.2641L21.6952 37.442C21.8827 37.4936 22.0701 37.5596 22.2576 37.6399C22.4451 37.7203 22.6163 37.8217 22.7712 37.9441C22.9281 38.0646 23.0534 38.2129 23.1471 38.3888C23.2427 38.5629 23.2906 38.7724 23.2906 39.0172C23.2906 39.3309 23.2093 39.6131 23.0467 39.8637C22.8841 40.1143 22.6507 40.3132 22.3465 40.4605C22.0424 40.6059 21.678 40.6786 21.2533 40.6786C20.8535 40.6786 20.5064 40.6126 20.2118 40.4806C19.9172 40.3467 19.6857 40.1621 19.5174 39.9268C19.3491 39.6915 19.2544 39.4189 19.2333 39.109H19.7842C19.8034 39.3405 19.8799 39.5366 20.0138 39.6972C20.1477 39.8579 20.3218 39.9804 20.536 40.0645C20.7502 40.1468 20.9894 40.1879 21.2533 40.1879C21.546 40.1879 21.8062 40.1391 22.0338 40.0416C22.2633 39.9421 22.4431 39.8044 22.5732 39.6284C22.7052 39.4505 22.7712 39.2439 22.7712 39.0086C22.7712 38.8097 22.7196 38.6432 22.6163 38.5093C22.513 38.3735 22.3685 38.2597 22.183 38.1679C21.9994 38.0761 21.7861 37.9948 21.5431 37.924L20.8402 37.7174C20.3791 37.5797 20.0214 37.3894 19.767 37.1464C19.5126 36.9035 19.3854 36.5936 19.3854 36.2168C19.3854 35.9011 19.4696 35.6238 19.6379 35.3847C19.8082 35.1436 20.0377 34.9562 20.3265 34.8223C20.6173 34.6865 20.9434 34.6186 21.305 34.6186C21.6703 34.6186 21.9936 34.6855 22.2748 34.8194C22.556 34.9533 22.7789 35.1379 22.9434 35.3732C23.1098 35.6066 23.1987 35.8724 23.2102 36.1709H22.6909ZM25.7065 40.6786C25.4406 40.6786 25.1977 40.6269 24.9777 40.5236C24.7577 40.4184 24.5827 40.2673 24.4526 40.0703C24.3225 39.8713 24.2575 39.6303 24.2575 39.3472C24.2575 39.1291 24.2986 38.9455 24.3809 38.7963C24.4631 38.6471 24.5798 38.5246 24.7309 38.429C24.8821 38.3334 25.0609 38.2578 25.2675 38.2023C25.4741 38.1469 25.7017 38.1038 25.9504 38.0732C26.1972 38.0426 26.4057 38.0158 26.5759 37.9929C26.7481 37.9699 26.8791 37.9336 26.969 37.8838C27.0589 37.8341 27.1039 37.7538 27.1039 37.6428V37.5395C27.1039 37.2392 27.014 37.003 26.8342 36.8308C26.6563 36.6567 26.3999 36.5697 26.0652 36.5697C25.7476 36.5697 25.4884 36.6395 25.2876 36.7791C25.0887 36.9188 24.949 37.0833 24.8687 37.2727L24.3838 37.0976C24.4832 36.8566 24.621 36.6644 24.7969 36.5209C24.9729 36.3755 25.17 36.2713 25.388 36.2082C25.6061 36.1431 25.827 36.1106 26.0508 36.1106C26.2192 36.1106 26.3942 36.1326 26.5759 36.1766C26.7596 36.2206 26.9298 36.2971 27.0867 36.4061C27.2435 36.5133 27.3707 36.6634 27.4683 36.8566C27.5658 37.0479 27.6146 37.2908 27.6146 37.5854V40.5781H27.1039V39.8809H27.0723C27.0111 40.011 26.9202 40.1372 26.7997 40.2596C26.6792 40.3821 26.5281 40.4825 26.3464 40.5609C26.1647 40.6393 25.9514 40.6786 25.7065 40.6786ZM25.7754 40.2109C26.047 40.2109 26.2823 40.1506 26.4812 40.0301C26.6802 39.9096 26.8332 39.7498 26.9403 39.5509C27.0494 39.3501 27.1039 39.1291 27.1039 38.8881V38.2511C27.0656 38.2875 27.0015 38.32 26.9116 38.3487C26.8236 38.3774 26.7213 38.4032 26.6046 38.4261C26.4898 38.4472 26.3751 38.4654 26.2603 38.4807C26.1455 38.496 26.0422 38.5093 25.9504 38.5208C25.7017 38.5514 25.4894 38.5993 25.3134 38.6643C25.1374 38.7293 25.0026 38.8192 24.9088 38.934C24.8151 39.0469 24.7682 39.1922 24.7682 39.3701C24.7682 39.6379 24.8639 39.8455 25.0552 39.9928C25.2465 40.1382 25.4865 40.2109 25.7754 40.2109ZM32.227 36.1709L30.6174 40.5781H30.0722L28.4625 36.1709H29.0163L30.3247 39.9038H30.3649L31.6733 36.1709H32.227ZM34.8503 40.6699C34.439 40.6699 34.0833 40.5743 33.7829 40.383C33.4826 40.1898 33.2502 39.923 33.0857 39.5825C32.9231 39.2401 32.8418 38.846 32.8418 38.4003C32.8418 37.9565 32.9231 37.5625 33.0857 37.2182C33.2502 36.8719 33.4769 36.6012 33.7657 36.4061C34.0565 36.2091 34.3922 36.1106 34.7728 36.1106C35.012 36.1106 35.2425 36.1546 35.4644 36.2426C35.6862 36.3287 35.8852 36.4616 36.0612 36.6414C36.2391 36.8193 36.3797 37.0441 36.483 37.3157C36.5863 37.5854 36.6379 37.9049 36.6379 38.2741V38.5266H33.1947V38.0761H36.1157C36.1157 37.793 36.0583 37.5386 35.9435 37.3128C35.8307 37.0852 35.6729 36.9054 35.4701 36.7734C35.2692 36.6414 35.0368 36.5754 34.7728 36.5754C34.4936 36.5754 34.2478 36.65 34.0354 36.7992C33.8231 36.9484 33.6567 37.1455 33.5362 37.3903C33.4176 37.6352 33.3573 37.903 33.3554 38.1937V38.4634C33.3554 38.8135 33.4157 39.1196 33.5362 39.3816C33.6586 39.6418 33.8317 39.8436 34.0555 39.987C34.2793 40.1305 34.5443 40.2022 34.8503 40.2022C35.0588 40.2022 35.2415 40.1697 35.3984 40.1047C35.5571 40.0396 35.6901 39.9526 35.7972 39.8436C35.9062 39.7326 35.9885 39.6112 36.044 39.4792L36.5289 39.637C36.4619 39.8225 36.3519 39.9937 36.1989 40.1506C36.0478 40.3075 35.8584 40.4337 35.6308 40.5293C35.4051 40.6231 35.1449 40.6699 34.8503 40.6699ZM39.3501 40.6699C38.9886 40.6699 38.672 40.5743 38.4004 40.383C38.1288 40.1917 37.9164 39.9249 37.7634 39.5825C37.6123 39.2401 37.5367 38.8412 37.5367 38.386C37.5367 37.9326 37.6123 37.5357 37.7634 37.1952C37.9164 36.8528 38.1297 36.5869 38.4032 36.3975C38.6768 36.2062 38.9953 36.1106 39.3587 36.1106C39.6265 36.1106 39.8494 36.1584 40.0273 36.2541C40.2052 36.3478 40.3477 36.4645 40.4548 36.6041C40.5619 36.7438 40.6451 36.8796 40.7044 37.0116H40.7504V34.7018H41.264V40.5781H40.7647V39.7604H40.7044C40.6451 39.8943 40.561 40.032 40.4519 40.1736C40.3429 40.3132 40.1985 40.4308 40.0187 40.5265C39.8408 40.6221 39.6179 40.6699 39.3501 40.6699ZM39.4104 40.2022C39.6954 40.2022 39.9383 40.1248 40.1392 39.9698C40.34 39.813 40.4931 39.5978 40.5983 39.3242C40.7054 39.0488 40.759 38.7332 40.759 38.3774C40.759 38.0254 40.7064 37.7145 40.6011 37.4448C40.4959 37.1732 40.3429 36.9609 40.1421 36.8078C39.9412 36.6529 39.6973 36.5754 39.4104 36.5754C39.1158 36.5754 38.8671 36.6558 38.6644 36.8164C38.4635 36.9752 38.3105 37.1904 38.2053 37.462C38.102 37.7337 38.0503 38.0388 38.0503 38.3774C38.0503 38.7198 38.1029 39.0287 38.2081 39.3041C38.3133 39.5796 38.4664 39.7986 38.6672 39.9612C38.87 40.1219 39.1177 40.2022 39.4104 40.2022ZM45.0974 40.5781V34.7018H46.994C47.411 34.7018 47.7591 34.7773 48.0384 34.9284C48.3196 35.0776 48.531 35.2852 48.6725 35.5511C48.816 35.8151 48.8877 36.1182 48.8877 36.4607C48.8877 36.8031 48.816 37.1053 48.6725 37.3674C48.531 37.6294 48.3206 37.8341 48.0413 37.9814C47.762 38.1287 47.4158 38.2023 47.0026 38.2023H45.3872V37.7117H46.9882C47.2943 37.7117 47.5487 37.661 47.7515 37.5596C47.9562 37.4582 48.1082 37.3138 48.2077 37.1263C48.3091 36.9389 48.3598 36.717 48.3598 36.4607C48.3598 36.2043 48.3091 35.9805 48.2077 35.7892C48.1063 35.596 47.9533 35.4468 47.7486 35.3416C47.5459 35.2364 47.2895 35.1838 46.9796 35.1838H45.6339V40.5781H45.0974ZM47.6884 37.9269L49.1345 40.5781H48.5147L47.0829 37.9269H47.6884ZM51.8231 40.6699C51.4118 40.6699 51.056 40.5743 50.7557 40.383C50.4553 40.1898 50.2229 39.923 50.0584 39.5825C49.8958 39.2401 49.8145 38.846 49.8145 38.4003C49.8145 37.9565 49.8958 37.5625 50.0584 37.2182C50.2229 36.8719 50.4496 36.6012 50.7384 36.4061C51.0292 36.2091 51.3649 36.1106 51.7456 36.1106C51.9847 36.1106 52.2152 36.1546 52.4371 36.2426C52.659 36.3287 52.8579 36.4616 53.0339 36.6414C53.2118 36.8193 53.3524 37.0441 53.4557 37.3157C53.559 37.5854 53.6106 37.9049 53.6106 38.2741V38.5266H50.1675V38.0761H53.0884C53.0884 37.793 53.031 37.5386 52.9163 37.3128C52.8034 37.0852 52.6456 36.9054 52.4428 36.7734C52.242 36.6414 52.0096 36.5754 51.7456 36.5754C51.4663 36.5754 51.2205 36.65 51.0082 36.7992C50.7958 36.9484 50.6294 37.1455 50.5089 37.3903C50.3903 37.6352 50.33 37.903 50.3281 38.1937V38.4634C50.3281 38.8135 50.3884 39.1196 50.5089 39.3816C50.6313 39.6418 50.8044 39.8436 51.0282 39.987C51.2521 40.1305 51.517 40.2022 51.8231 40.2022C52.0316 40.2022 52.2142 40.1697 52.3711 40.1047C52.5299 40.0396 52.6628 39.9526 52.7699 39.8436C52.879 39.7326 52.9612 39.6112 53.0167 39.4792L53.5016 39.637C53.4347 39.8225 53.3247 39.9937 53.1716 40.1506C53.0205 40.3075 52.8311 40.4337 52.6035 40.5293C52.3778 40.6231 52.1176 40.6699 51.8231 40.6699ZM57.7231 42.2309V39.7604H57.6772C57.6179 39.8943 57.5337 40.032 57.4247 40.1736C57.3156 40.3132 57.1712 40.4308 56.9914 40.5265C56.8116 40.6221 56.5887 40.6699 56.3229 40.6699C55.9632 40.6699 55.6467 40.5743 55.3731 40.383C55.1015 40.1917 54.8892 39.9249 54.7361 39.5825C54.585 39.2401 54.5094 38.8412 54.5094 38.386C54.5094 37.9326 54.585 37.5357 54.7361 37.1952C54.8892 36.8528 55.1024 36.5869 55.376 36.3975C55.6495 36.2062 55.968 36.1106 56.3315 36.1106C56.6012 36.1106 56.824 36.1584 57 36.2541C57.1779 36.3497 57.3204 36.4673 57.4275 36.607C57.5347 36.7447 57.6179 36.8796 57.6772 37.0116H57.7374V36.1709H58.2367V42.2309H57.7231ZM56.3831 40.2022C56.6681 40.2022 56.9111 40.1248 57.1119 39.9698C57.3128 39.813 57.4658 39.5978 57.571 39.3242C57.6781 39.0488 57.7317 38.7332 57.7317 38.3774C57.7317 38.0254 57.6791 37.7145 57.5739 37.4448C57.4687 37.1732 57.3156 36.9609 57.1148 36.8078C56.9159 36.6529 56.672 36.5754 56.3831 36.5754C56.0885 36.5754 55.8399 36.6558 55.6371 36.8164C55.4343 36.9752 55.2813 37.1904 55.178 37.462C55.0747 37.7337 55.0231 38.0388 55.0231 38.3774C55.0231 38.7198 55.0757 39.0287 55.1809 39.3041C55.2861 39.5796 55.4401 39.7986 55.6428 39.9612C55.8456 40.1219 56.0924 40.2022 56.3831 40.2022ZM62.3814 38.8938V36.1709H62.8922V40.5781H62.3814V39.8464H62.3413C62.238 40.0722 62.0744 40.2606 61.8506 40.4117C61.6268 40.5609 61.3533 40.6355 61.03 40.6355C60.7488 40.6355 60.4992 40.5743 60.2811 40.4519C60.063 40.3275 59.8918 40.1458 59.7675 39.9067C59.6431 39.6676 59.581 39.374 59.581 39.0258V36.1709H60.0917V38.9943C60.0917 39.3386 60.1931 39.6159 60.3959 39.8264C60.5986 40.0349 60.8588 40.1391 61.1763 40.1391C61.3753 40.1391 61.5665 40.0913 61.7502 39.9957C61.9338 39.9 62.0849 39.7604 62.2035 39.5767C62.3221 39.3912 62.3814 39.1636 62.3814 38.8938ZM66.0262 40.6699C65.6149 40.6699 65.2591 40.5743 64.9588 40.383C64.6585 40.1898 64.4261 39.923 64.2615 39.5825C64.0989 39.2401 64.0177 38.846 64.0177 38.4003C64.0177 37.9565 64.0989 37.5625 64.2615 37.2182C64.4261 36.8719 64.6527 36.6012 64.9416 36.4061C65.2323 36.2091 65.568 36.1106 65.9487 36.1106C66.1878 36.1106 66.4183 36.1546 66.6402 36.2426C66.8621 36.3287 67.061 36.4616 67.237 36.6414C67.4149 36.8193 67.5555 37.0441 67.6588 37.3157C67.7621 37.5854 67.8138 37.9049 67.8138 38.2741V38.5266H64.3706V38.0761H67.2915C67.2915 37.793 67.2342 37.5386 67.1194 37.3128C67.0065 37.0852 66.8487 36.9054 66.6459 36.7734C66.4451 36.6414 66.2127 36.5754 65.9487 36.5754C65.6694 36.5754 65.4236 36.65 65.2113 36.7992C64.999 36.9484 64.8325 37.1455 64.712 37.3903C64.5934 37.6352 64.5332 37.903 64.5313 38.1937V38.4634C64.5313 38.8135 64.5915 39.1196 64.712 39.3816C64.8345 39.6418 65.0076 39.8436 65.2314 39.987C65.4552 40.1305 65.7201 40.2022 66.0262 40.2022C66.2347 40.2022 66.4174 40.1697 66.5742 40.1047C66.733 40.0396 66.8659 39.9526 66.973 39.8436C67.0821 39.7326 67.1643 39.6112 67.2198 39.4792L67.7047 39.637C67.6378 39.8225 67.5278 39.9937 67.3748 40.1506C67.2236 40.3075 67.0343 40.4337 66.8066 40.5293C66.5809 40.6231 66.3208 40.6699 66.0262 40.6699ZM71.9004 37.1378L71.4327 37.2698C71.3868 37.1378 71.3217 37.0183 71.2376 36.9111C71.1534 36.804 71.0434 36.7189 70.9076 36.6558C70.7737 36.5926 70.6073 36.5611 70.4083 36.5611C70.1099 36.5611 69.8651 36.6319 69.6738 36.7734C69.4825 36.915 69.3869 37.0976 69.3869 37.3214C69.3869 37.5108 69.4519 37.6648 69.582 37.7834C69.714 37.9001 69.9167 37.9929 70.1903 38.0617L70.856 38.2253C71.2251 38.3152 71.5016 38.4577 71.6852 38.6528C71.8707 38.8479 71.9635 39.0928 71.9635 39.3874C71.9635 39.636 71.8946 39.857 71.7569 40.0502C71.6192 40.2434 71.4269 40.3954 71.1802 40.5064C70.9353 40.6154 70.6513 40.6699 70.328 40.6699C69.8976 40.6699 69.5428 40.5733 69.2635 40.3801C68.9842 40.185 68.8053 39.9038 68.7269 39.5366L69.2176 39.4161C69.2807 39.6781 69.4041 39.8761 69.5877 40.01C69.7733 40.1439 70.0172 40.2109 70.3194 40.2109C70.658 40.2109 70.9286 40.1353 71.1314 39.9842C71.3342 39.8311 71.4356 39.6399 71.4356 39.4103C71.4356 39.2324 71.3763 39.0832 71.2577 38.9627C71.1391 38.8403 70.9593 38.7504 70.7182 38.693L69.998 38.5208C69.6155 38.429 69.3323 38.2836 69.1487 38.0847C68.9651 37.8857 68.8733 37.639 68.8733 37.3444C68.8733 37.1015 68.9393 36.8882 69.0712 36.7045C69.2032 36.519 69.385 36.3736 69.6164 36.2684C69.8479 36.1632 70.1118 36.1106 70.4083 36.1106C70.812 36.1106 71.1343 36.2024 71.3753 36.3861C71.6182 36.5678 71.7933 36.8184 71.9004 37.1378ZM74.8178 36.1709V36.6156H72.7146V36.1709H74.8178ZM73.3716 35.1149H73.8852V39.4275C73.8852 39.6112 73.9168 39.7556 73.9799 39.8608C74.0431 39.9641 74.1253 40.0377 74.2267 40.0817C74.3281 40.1238 74.4361 40.1449 74.5509 40.1449C74.6179 40.1449 74.6753 40.141 74.7231 40.1334C74.7709 40.1238 74.813 40.1143 74.8493 40.1047L74.9584 40.5666C74.9086 40.5858 74.8474 40.603 74.7747 40.6183C74.702 40.6355 74.6121 40.6441 74.505 40.6441C74.3175 40.6441 74.1368 40.603 73.9627 40.5207C73.7906 40.4385 73.649 40.3161 73.5381 40.1535C73.4271 39.9909 73.3716 39.7891 73.3716 39.548V35.1149ZM78.8599 37.1378L78.3922 37.2698C78.3463 37.1378 78.2813 37.0183 78.1971 36.9111C78.1129 36.804 78.0029 36.7189 77.8671 36.6558C77.7332 36.5926 77.5668 36.5611 77.3679 36.5611C77.0695 36.5611 76.8246 36.6319 76.6333 36.7734C76.442 36.915 76.3464 37.0976 76.3464 37.3214C76.3464 37.5108 76.4114 37.6648 76.5415 37.7834C76.6735 37.9001 76.8763 37.9929 77.1498 38.0617L77.8155 38.2253C78.1847 38.3152 78.4611 38.4577 78.6447 38.6528C78.8303 38.8479 78.923 39.0928 78.923 39.3874C78.923 39.636 78.8542 39.857 78.7165 40.0502C78.5787 40.2434 78.3865 40.3954 78.1397 40.5064C77.8949 40.6154 77.6108 40.6699 77.2875 40.6699C76.8571 40.6699 76.5023 40.5733 76.223 40.3801C75.9437 40.185 75.7649 39.9038 75.6865 39.5366L76.1771 39.4161C76.2402 39.6781 76.3636 39.8761 76.5472 40.01C76.7328 40.1439 76.9767 40.2109 77.2789 40.2109C77.6175 40.2109 77.8882 40.1353 78.0909 39.9842C78.2937 39.8311 78.3951 39.6399 78.3951 39.4103C78.3951 39.2324 78.3358 39.0832 78.2172 38.9627C78.0986 38.8403 77.9188 38.7504 77.6778 38.693L76.9576 38.5208C76.575 38.429 76.2919 38.2836 76.1082 38.0847C75.9246 37.8857 75.8328 37.639 75.8328 37.3444C75.8328 37.1015 75.8988 36.8882 76.0308 36.7045C76.1628 36.519 76.3445 36.3736 76.5759 36.2684C76.8074 36.1632 77.0714 36.1106 77.3679 36.1106C77.7715 36.1106 78.0938 36.2024 78.3348 36.3861C78.5778 36.5678 78.7528 36.8184 78.8599 37.1378Z" fill="#00050B" fill-opacity="0.3"/>
<path d="M183.297 28.6982C182.656 28.6982 182.086 28.5881 181.585 28.3679C181.088 28.1449 180.694 27.8389 180.405 27.4499C180.119 27.0581 179.972 26.6063 179.964 26.0943H181.834C181.845 26.3088 181.915 26.4976 182.044 26.6606C182.176 26.8207 182.35 26.9452 182.568 27.0338C182.785 27.1225 183.029 27.1668 183.301 27.1668C183.584 27.1668 183.834 27.1167 184.052 27.0166C184.269 26.9166 184.439 26.7779 184.562 26.6005C184.685 26.4232 184.747 26.2187 184.747 25.9871C184.747 25.7526 184.681 25.5453 184.549 25.3651C184.421 25.1821 184.235 25.0391 183.992 24.9361C183.751 24.8332 183.465 24.7817 183.134 24.7817H182.314V23.4175H183.134C183.414 23.4175 183.661 23.3689 183.876 23.2717C184.093 23.1744 184.262 23.04 184.382 22.8684C184.502 22.694 184.562 22.4909 184.562 22.2593C184.562 22.0391 184.509 21.846 184.404 21.6802C184.301 21.5114 184.155 21.3799 183.966 21.2855C183.78 21.1911 183.563 21.1439 183.314 21.1439C183.062 21.1439 182.832 21.1897 182.623 21.2812C182.415 21.3699 182.247 21.4971 182.121 21.663C181.996 21.8289 181.928 22.0234 181.92 22.2464H180.139C180.148 21.7402 180.292 21.2941 180.573 20.908C180.853 20.5219 181.231 20.2202 181.705 20.0029C182.183 19.7827 182.722 19.6726 183.323 19.6726C183.929 19.6726 184.459 19.7827 184.914 20.0029C185.369 20.2231 185.722 20.5205 185.974 20.8951C186.228 21.2669 186.354 21.6845 186.351 22.1478C186.354 22.6396 186.201 23.05 185.892 23.3789C185.586 23.7078 185.187 23.9166 184.695 24.0052V24.0739C185.342 24.1568 185.833 24.3813 186.171 24.7474C186.511 25.1106 186.68 25.5653 186.677 26.1115C186.68 26.612 186.536 27.0567 186.244 27.4456C185.955 27.8346 185.556 28.1406 185.047 28.3636C184.538 28.5867 183.955 28.6982 183.297 28.6982ZM191.221 28.6982C190.615 28.6982 190.074 28.5867 189.6 28.3636C189.128 28.1406 188.753 27.8331 188.476 27.4413C188.198 27.0495 188.054 26.6005 188.042 26.0943H189.844C189.864 26.4347 190.007 26.7106 190.273 26.9223C190.539 27.1339 190.855 27.2397 191.221 27.2397C191.513 27.2397 191.77 27.1754 191.993 27.0467C192.219 26.9151 192.395 26.7335 192.521 26.5019C192.65 26.2674 192.714 25.9985 192.714 25.6954C192.714 25.3865 192.648 25.1148 192.517 24.8803C192.388 24.6458 192.209 24.4628 191.98 24.3313C191.752 24.1997 191.49 24.1325 191.195 24.1296C190.938 24.1296 190.688 24.1825 190.445 24.2884C190.204 24.3942 190.017 24.5386 189.883 24.7216L188.231 24.4256L188.647 19.7927H194.018V21.3113H190.179L189.951 23.5119H190.003C190.157 23.2946 190.39 23.1144 190.702 22.9714C191.014 22.8284 191.363 22.7569 191.749 22.7569C192.278 22.7569 192.75 22.8813 193.164 23.1301C193.579 23.3789 193.906 23.7207 194.147 24.1554C194.387 24.5872 194.506 25.0848 194.503 25.6482C194.506 26.2402 194.368 26.7664 194.091 27.2268C193.816 27.6844 193.432 28.0448 192.937 28.3079C192.445 28.5681 191.873 28.6982 191.221 28.6982ZM199.243 28.7712C198.505 28.7683 197.87 28.5867 197.338 28.2264C196.809 27.866 196.402 27.3441 196.116 26.6606C195.833 25.9771 195.692 25.1549 195.695 24.194C195.695 23.2359 195.837 22.4194 196.12 21.7445C196.406 21.0696 196.813 20.5562 197.343 20.2045C197.874 19.8499 198.508 19.6726 199.243 19.6726C199.978 19.6726 200.61 19.8499 201.139 20.2045C201.671 20.5591 202.08 21.0739 202.366 21.7488C202.652 22.4209 202.793 23.2359 202.791 24.194C202.791 25.1577 202.648 25.9814 202.362 26.6649C202.078 27.3484 201.672 27.8703 201.143 28.2307C200.614 28.591 199.981 28.7712 199.243 28.7712ZM199.243 27.2311C199.746 27.2311 200.148 26.978 200.448 26.4718C200.749 25.9657 200.897 25.2064 200.894 24.194C200.894 23.5276 200.826 22.9728 200.689 22.5295C200.554 22.0863 200.363 21.7531 200.114 21.53C199.868 21.307 199.578 21.1954 199.243 21.1954C198.742 21.1954 198.342 21.4457 198.042 21.9461C197.742 22.4466 197.59 23.1959 197.587 24.194C197.587 24.8689 197.654 25.4323 197.789 25.8841C197.926 26.3331 198.119 26.6706 198.368 26.8965C198.617 27.1196 198.908 27.2311 199.243 27.2311ZM207.56 28.7712C206.822 28.7683 206.187 28.5867 205.655 28.2264C205.126 27.866 204.718 27.3441 204.432 26.6606C204.149 25.9771 204.009 25.1549 204.012 24.194C204.012 23.2359 204.154 22.4194 204.437 21.7445C204.723 21.0696 205.13 20.5562 205.659 20.2045C206.191 19.8499 206.825 19.6726 207.56 19.6726C208.295 19.6726 208.927 19.8499 209.456 20.2045C209.988 20.5591 210.397 21.0739 210.683 21.7488C210.969 22.4209 211.11 23.2359 211.107 24.194C211.107 25.1577 210.964 25.9814 210.678 26.6649C210.395 27.3484 209.989 27.8703 209.46 28.2307C208.931 28.591 208.298 28.7712 207.56 28.7712ZM207.56 27.2311C208.063 27.2311 208.465 26.978 208.765 26.4718C209.065 25.9657 209.214 25.2064 209.211 24.194C209.211 23.5276 209.143 22.9728 209.005 22.5295C208.871 22.0863 208.679 21.7531 208.431 21.53C208.185 21.307 207.894 21.1954 207.56 21.1954C207.059 21.1954 206.659 21.4457 206.359 21.9461C206.058 22.4466 205.907 23.1959 205.904 24.194C205.904 24.8689 205.971 25.4323 206.105 25.8841C206.243 26.3331 206.436 26.6706 206.685 26.8965C206.933 27.1196 207.225 27.2311 207.56 27.2311Z" fill="#00050B" fill-opacity="0.7"/>
<path d="M145.691 36.1709C145.658 35.8437 145.514 35.5836 145.258 35.3904C145.001 35.1972 144.679 35.1006 144.291 35.1006C144.017 35.1006 143.776 35.1475 143.568 35.2412C143.361 35.3349 143.198 35.465 143.08 35.6314C142.963 35.7959 142.905 35.9834 142.905 36.1938C142.905 36.3488 142.938 36.4846 143.005 36.6013C143.072 36.7179 143.162 36.8184 143.275 36.9025C143.39 36.9848 143.516 37.0556 143.654 37.1149C143.793 37.1742 143.934 37.2239 144.075 37.2641L144.695 37.442C144.883 37.4936 145.07 37.5596 145.258 37.6399C145.445 37.7203 145.616 37.8217 145.771 37.9441C145.928 38.0646 146.053 38.2129 146.147 38.3888C146.243 38.5629 146.291 38.7724 146.291 39.0172C146.291 39.3309 146.209 39.6131 146.047 39.8637C145.884 40.1143 145.651 40.3132 145.347 40.4605C145.042 40.6059 144.678 40.6786 144.253 40.6786C143.854 40.6786 143.506 40.6126 143.212 40.4806C142.917 40.3467 142.686 40.1621 142.517 39.9268C142.349 39.6915 142.254 39.4189 142.233 39.109H142.784C142.803 39.3405 142.88 39.5366 143.014 39.6972C143.148 39.8579 143.322 39.9804 143.536 40.0645C143.75 40.1468 143.989 40.1879 144.253 40.1879C144.546 40.1879 144.806 40.1391 145.034 40.0416C145.263 39.9421 145.443 39.8044 145.573 39.6284C145.705 39.4505 145.771 39.2439 145.771 39.0086C145.771 38.8097 145.72 38.6432 145.616 38.5093C145.513 38.3735 145.369 38.2597 145.183 38.1679C144.999 38.0761 144.786 37.9948 144.543 37.924L143.84 37.7174C143.379 37.5797 143.021 37.3894 142.767 37.1464C142.513 36.9035 142.385 36.5936 142.385 36.2168C142.385 35.9011 142.47 35.6238 142.638 35.3847C142.808 35.1436 143.038 34.9562 143.327 34.8223C143.617 34.6865 143.943 34.6186 144.305 34.6186C144.67 34.6186 144.994 34.6855 145.275 34.8194C145.556 34.9533 145.779 35.1379 145.943 35.3732C146.11 35.6066 146.199 35.8724 146.21 36.1709H145.691ZM148.707 40.6786C148.441 40.6786 148.198 40.6269 147.978 40.5236C147.758 40.4184 147.583 40.2673 147.453 40.0703C147.323 39.8713 147.258 39.6303 147.258 39.3472C147.258 39.1291 147.299 38.9455 147.381 38.7963C147.463 38.6471 147.58 38.5246 147.731 38.429C147.882 38.3334 148.061 38.2578 148.268 38.2023C148.474 38.1469 148.702 38.1038 148.95 38.0732C149.197 38.0426 149.406 38.0158 149.576 37.9929C149.748 37.9699 149.879 37.9336 149.969 37.8838C150.059 37.8341 150.104 37.7538 150.104 37.6428V37.5395C150.104 37.2392 150.014 37.003 149.834 36.8308C149.656 36.6567 149.4 36.5697 149.065 36.5697C148.748 36.5697 148.488 36.6395 148.288 36.7791C148.089 36.9188 147.949 37.0833 147.869 37.2727L147.384 37.0976C147.483 36.8566 147.621 36.6644 147.797 36.5209C147.973 36.3755 148.17 36.2713 148.388 36.2082C148.606 36.1431 148.827 36.1106 149.051 36.1106C149.219 36.1106 149.394 36.1326 149.576 36.1766C149.76 36.2206 149.93 36.2971 150.087 36.4061C150.244 36.5133 150.371 36.6634 150.468 36.8566C150.566 37.0479 150.615 37.2908 150.615 37.5854V40.5781H150.104V39.8809H150.072C150.011 40.011 149.92 40.1372 149.8 40.2596C149.679 40.3821 149.528 40.4825 149.346 40.5609C149.165 40.6393 148.951 40.6786 148.707 40.6786ZM148.775 40.2109C149.047 40.2109 149.282 40.1506 149.481 40.0301C149.68 39.9096 149.833 39.7498 149.94 39.5509C150.049 39.3501 150.104 39.1291 150.104 38.8881V38.2511C150.066 38.2875 150.002 38.32 149.912 38.3487C149.824 38.3774 149.721 38.4032 149.605 38.4261C149.49 38.4472 149.375 38.4654 149.26 38.4807C149.146 38.496 149.042 38.5093 148.95 38.5208C148.702 38.5514 148.489 38.5993 148.313 38.6643C148.137 38.7293 148.003 38.8192 147.909 38.934C147.815 39.0469 147.768 39.1922 147.768 39.3701C147.768 39.6379 147.864 39.8455 148.055 39.9928C148.246 40.1382 148.487 40.2109 148.775 40.2109ZM155.227 36.1709L153.617 40.5781H153.072L151.462 36.1709H152.016L153.325 39.9038H153.365L154.673 36.1709H155.227ZM157.85 40.6699C157.439 40.6699 157.083 40.5743 156.783 40.383C156.483 40.1898 156.25 39.923 156.086 39.5825C155.923 39.2401 155.842 38.846 155.842 38.4003C155.842 37.9565 155.923 37.5625 156.086 37.2182C156.25 36.8719 156.477 36.6012 156.766 36.4061C157.056 36.2091 157.392 36.1106 157.773 36.1106C158.012 36.1106 158.242 36.1546 158.464 36.2426C158.686 36.3287 158.885 36.4616 159.061 36.6414C159.239 36.8193 159.38 37.0441 159.483 37.3157C159.586 37.5854 159.638 37.9049 159.638 38.2741V38.5266H156.195V38.0761H159.116C159.116 37.793 159.058 37.5386 158.944 37.3128C158.831 37.0852 158.673 36.9054 158.47 36.7734C158.269 36.6414 158.037 36.5754 157.773 36.5754C157.494 36.5754 157.248 36.65 157.035 36.7992C156.823 36.9484 156.657 37.1455 156.536 37.3903C156.418 37.6352 156.357 37.903 156.355 38.1937V38.4634C156.355 38.8135 156.416 39.1196 156.536 39.3816C156.659 39.6418 156.832 39.8436 157.056 39.987C157.279 40.1305 157.544 40.2022 157.85 40.2022C158.059 40.2022 158.242 40.1697 158.398 40.1047C158.557 40.0396 158.69 39.9526 158.797 39.8436C158.906 39.7326 158.988 39.6112 159.044 39.4792L159.529 39.637C159.462 39.8225 159.352 39.9937 159.199 40.1506C159.048 40.3075 158.858 40.4337 158.631 40.5293C158.405 40.6231 158.145 40.6699 157.85 40.6699ZM161.994 40.6786C161.728 40.6786 161.486 40.6269 161.266 40.5236C161.046 40.4184 160.871 40.2673 160.74 40.0703C160.61 39.8713 160.545 39.6303 160.545 39.3472C160.545 39.1291 160.586 38.9455 160.669 38.7963C160.751 38.6471 160.868 38.5246 161.019 38.429C161.17 38.3334 161.349 38.2578 161.555 38.2023C161.762 38.1469 161.99 38.1038 162.238 38.0732C162.485 38.0426 162.693 38.0158 162.864 37.9929C163.036 37.9699 163.167 37.9336 163.257 37.8838C163.347 37.8341 163.392 37.7538 163.392 37.6428V37.5395C163.392 37.2392 163.302 37.003 163.122 36.8308C162.944 36.6567 162.688 36.5697 162.353 36.5697C162.035 36.5697 161.776 36.6395 161.575 36.7791C161.376 36.9188 161.237 37.0833 161.156 37.2727L160.672 37.0976C160.771 36.8566 160.909 36.6644 161.085 36.5209C161.261 36.3755 161.458 36.2713 161.676 36.2082C161.894 36.1431 162.115 36.1106 162.339 36.1106C162.507 36.1106 162.682 36.1326 162.864 36.1766C163.047 36.2206 163.218 36.2971 163.374 36.4061C163.531 36.5133 163.659 36.6634 163.756 36.8566C163.854 37.0479 163.902 37.2908 163.902 37.5854V40.5781H163.392V39.8809H163.36C163.299 40.011 163.208 40.1372 163.088 40.2596C162.967 40.3821 162.816 40.4825 162.634 40.5609C162.452 40.6393 162.239 40.6786 161.994 40.6786ZM162.063 40.2109C162.335 40.2109 162.57 40.1506 162.769 40.0301C162.968 39.9096 163.121 39.7498 163.228 39.5509C163.337 39.3501 163.392 39.1291 163.392 38.8881V38.2511C163.353 38.2875 163.289 38.32 163.199 38.3487C163.111 38.3774 163.009 38.4032 162.892 38.4261C162.778 38.4472 162.663 38.4654 162.548 38.4807C162.433 38.496 162.33 38.5093 162.238 38.5208C161.99 38.5514 161.777 38.5993 161.601 38.6643C161.425 38.7293 161.29 38.8192 161.197 38.934C161.103 39.0469 161.056 39.1922 161.056 39.3701C161.056 39.6379 161.152 39.8455 161.343 39.9928C161.534 40.1382 161.774 40.2109 162.063 40.2109ZM165.367 40.5781V34.7018H165.881V37.0116H165.927C165.984 36.8796 166.066 36.7438 166.173 36.6041C166.283 36.4645 166.425 36.3478 166.601 36.2541C166.779 36.1584 167.003 36.1106 167.272 36.1106C167.634 36.1106 167.952 36.2062 168.225 36.3975C168.499 36.5869 168.712 36.8528 168.865 37.1952C169.018 37.5357 169.094 37.9326 169.094 38.386C169.094 38.8412 169.018 39.2401 168.865 39.5825C168.714 39.9249 168.501 40.1917 168.228 40.383C167.956 40.5743 167.641 40.6699 167.281 40.6699C167.013 40.6699 166.789 40.6221 166.61 40.5265C166.432 40.4308 166.288 40.3132 166.179 40.1736C166.07 40.032 165.986 39.8943 165.927 39.7604H165.864V40.5781H165.367ZM165.872 38.3774C165.872 38.7332 165.925 39.0488 166.03 39.3242C166.137 39.5978 166.29 39.813 166.489 39.9698C166.69 40.1248 166.933 40.2022 167.218 40.2022C167.511 40.2022 167.758 40.1219 167.961 39.9612C168.164 39.7986 168.318 39.5796 168.423 39.3041C168.528 39.0287 168.581 38.7198 168.581 38.3774C168.581 38.0388 168.528 37.7337 168.423 37.462C168.32 37.1904 168.167 36.9752 167.964 36.8164C167.761 36.6558 167.513 36.5754 167.218 36.5754C166.931 36.5754 166.687 36.6529 166.486 36.8078C166.287 36.9609 166.135 37.1732 166.03 37.4448C165.925 37.7145 165.872 38.0254 165.872 38.3774ZM170.727 34.7018V40.5781H170.216V34.7018H170.727ZM173.86 40.6699C173.449 40.6699 173.093 40.5743 172.793 40.383C172.493 40.1898 172.26 39.923 172.096 39.5825C171.933 39.2401 171.852 38.846 171.852 38.4003C171.852 37.9565 171.933 37.5625 172.096 37.2182C172.26 36.8719 172.487 36.6012 172.776 36.4061C173.067 36.2091 173.402 36.1106 173.783 36.1106C174.022 36.1106 174.253 36.1546 174.474 36.2426C174.696 36.3287 174.895 36.4616 175.071 36.6414C175.249 36.8193 175.39 37.0441 175.493 37.3157C175.596 37.5854 175.648 37.9049 175.648 38.2741V38.5266H172.205V38.0761H175.126C175.126 37.793 175.068 37.5386 174.954 37.3128C174.841 37.0852 174.683 36.9054 174.48 36.7734C174.279 36.6414 174.047 36.5754 173.783 36.5754C173.504 36.5754 173.258 36.65 173.046 36.7992C172.833 36.9484 172.667 37.1455 172.546 37.3903C172.428 37.6352 172.367 37.903 172.365 38.1937V38.4634C172.365 38.8135 172.426 39.1196 172.546 39.3816C172.669 39.6418 172.842 39.8436 173.066 39.987C173.289 40.1305 173.554 40.2022 173.86 40.2022C174.069 40.2022 174.252 40.1697 174.408 40.1047C174.567 40.0396 174.7 39.9526 174.807 39.8436C174.916 39.7326 174.999 39.6112 175.054 39.4792L175.539 39.637C175.472 39.8225 175.362 39.9937 175.209 40.1506C175.058 40.3075 174.868 40.4337 174.641 40.5293C174.415 40.6231 174.155 40.6699 173.86 40.6699ZM179.046 40.5781V36.1709H179.542V36.848H179.58C179.668 36.6261 179.821 36.4473 180.039 36.3114C180.259 36.1737 180.507 36.1049 180.785 36.1049C180.827 36.1049 180.874 36.1058 180.925 36.1077C180.977 36.1096 181.02 36.1116 181.054 36.1135V36.6328C181.032 36.629 180.991 36.6232 180.934 36.6156C180.877 36.6079 180.814 36.6041 180.747 36.6041C180.518 36.6041 180.313 36.6529 180.133 36.7505C179.956 36.8461 179.815 36.979 179.712 37.1493C179.608 37.3195 179.557 37.5137 179.557 37.7318V40.5781H179.046ZM183.574 40.6699C183.162 40.6699 182.807 40.5743 182.506 40.383C182.206 40.1898 181.974 39.923 181.809 39.5825C181.647 39.2401 181.565 38.846 181.565 38.4003C181.565 37.9565 181.647 37.5625 181.809 37.2182C181.974 36.8719 182.2 36.6012 182.489 36.4061C182.78 36.2091 183.116 36.1106 183.496 36.1106C183.735 36.1106 183.966 36.1546 184.188 36.2426C184.41 36.3287 184.609 36.4616 184.785 36.6414C184.963 36.8193 185.103 37.0441 185.206 37.3157C185.31 37.5854 185.361 37.9049 185.361 38.2741V38.5266H181.918V38.0761H184.839C184.839 37.793 184.782 37.5386 184.667 37.3128C184.554 37.0852 184.396 36.9054 184.194 36.7734C183.993 36.6414 183.76 36.5754 183.496 36.5754C183.217 36.5754 182.971 36.65 182.759 36.7992C182.547 36.9484 182.38 37.1455 182.26 37.3903C182.141 37.6352 182.081 37.903 182.079 38.1937V38.4634C182.079 38.8135 182.139 39.1196 182.26 39.3816C182.382 39.6418 182.555 39.8436 182.779 39.987C183.003 40.1305 183.268 40.2022 183.574 40.2022C183.782 40.2022 183.965 40.1697 184.122 40.1047C184.281 40.0396 184.414 39.9526 184.521 39.8436C184.63 39.7326 184.712 39.6112 184.767 39.4792L185.252 39.637C185.185 39.8225 185.075 39.9937 184.922 40.1506C184.771 40.3075 184.582 40.4337 184.354 40.5293C184.128 40.6231 183.868 40.6699 183.574 40.6699ZM189.474 42.2309V39.7604H189.428C189.369 39.8943 189.284 40.032 189.175 40.1736C189.066 40.3132 188.922 40.4308 188.742 40.5265C188.562 40.6221 188.339 40.6699 188.074 40.6699C187.714 40.6699 187.397 40.5743 187.124 40.383C186.852 40.1917 186.64 39.9249 186.487 39.5825C186.336 39.2401 186.26 38.8412 186.26 38.386C186.26 37.9326 186.336 37.5357 186.487 37.1952C186.64 36.8528 186.853 36.5869 187.127 36.3975C187.4 36.2062 187.719 36.1106 188.082 36.1106C188.352 36.1106 188.575 36.1584 188.751 36.2541C188.929 36.3497 189.071 36.4673 189.178 36.607C189.285 36.7447 189.369 36.8796 189.428 37.0116H189.488V36.1709H189.987V42.2309H189.474ZM188.134 40.2022C188.419 40.2022 188.662 40.1248 188.863 39.9698C189.063 39.813 189.217 39.5978 189.322 39.3242C189.429 39.0488 189.482 38.7332 189.482 38.3774C189.482 38.0254 189.43 37.7145 189.325 37.4448C189.219 37.1732 189.066 36.9609 188.865 36.8078C188.667 36.6529 188.423 36.5754 188.134 36.5754C187.839 36.5754 187.591 36.6558 187.388 36.8164C187.185 36.9752 187.032 37.1904 186.929 37.462C186.825 37.7337 186.774 38.0388 186.774 38.3774C186.774 38.7198 186.826 39.0287 186.932 39.3041C187.037 39.5796 187.191 39.7986 187.394 39.9612C187.596 40.1219 187.843 40.2022 188.134 40.2022ZM194.132 38.8938V36.1709H194.643V40.5781H194.132V39.8464H194.092C193.989 40.0722 193.825 40.2606 193.601 40.4117C193.377 40.5609 193.104 40.6355 192.781 40.6355C192.499 40.6355 192.25 40.5743 192.032 40.4519C191.814 40.3275 191.643 40.1458 191.518 39.9067C191.394 39.6676 191.332 39.374 191.332 39.0258V36.1709H191.842V38.9943C191.842 39.3386 191.944 39.6159 192.147 39.8264C192.349 40.0349 192.609 40.1391 192.927 40.1391C193.126 40.1391 193.317 40.0913 193.501 39.9957C193.685 39.9 193.836 39.7604 193.954 39.5767C194.073 39.3912 194.132 39.1636 194.132 38.8938ZM197.777 40.6699C197.366 40.6699 197.01 40.5743 196.709 40.383C196.409 40.1898 196.177 39.923 196.012 39.5825C195.85 39.2401 195.768 38.846 195.768 38.4003C195.768 37.9565 195.85 37.5625 196.012 37.2182C196.177 36.8719 196.403 36.6012 196.692 36.4061C196.983 36.2091 197.319 36.1106 197.699 36.1106C197.939 36.1106 198.169 36.1546 198.391 36.2426C198.613 36.3287 198.812 36.4616 198.988 36.6414C199.166 36.8193 199.306 37.0441 199.41 37.3157C199.513 37.5854 199.564 37.9049 199.564 38.2741V38.5266H196.121V38.0761H199.042C199.042 37.793 198.985 37.5386 198.87 37.3128C198.757 37.0852 198.599 36.9054 198.397 36.7734C198.196 36.6414 197.963 36.5754 197.699 36.5754C197.42 36.5754 197.174 36.65 196.962 36.7992C196.75 36.9484 196.583 37.1455 196.463 37.3903C196.344 37.6352 196.284 37.903 196.282 38.1937V38.4634C196.282 38.8135 196.342 39.1196 196.463 39.3816C196.585 39.6418 196.758 39.8436 196.982 39.987C197.206 40.1305 197.471 40.2022 197.777 40.2022C197.985 40.2022 198.168 40.1697 198.325 40.1047C198.484 40.0396 198.617 39.9526 198.724 39.8436C198.833 39.7326 198.915 39.6112 198.971 39.4792L199.455 39.637C199.388 39.8225 199.278 39.9937 199.125 40.1506C198.974 40.3075 198.785 40.4337 198.557 40.5293C198.332 40.6231 198.071 40.6699 197.777 40.6699ZM203.651 37.1378L203.183 37.2698C203.137 37.1378 203.072 37.0183 202.988 36.9111C202.904 36.804 202.794 36.7189 202.658 36.6558C202.524 36.5926 202.358 36.5611 202.159 36.5611C201.861 36.5611 201.616 36.6319 201.424 36.7734C201.233 36.915 201.138 37.0976 201.138 37.3214C201.138 37.5108 201.203 37.6648 201.333 37.7834C201.465 37.9001 201.667 37.9929 201.941 38.0617L202.607 38.2253C202.976 38.3152 203.252 38.4577 203.436 38.6528C203.621 38.8479 203.714 39.0928 203.714 39.3874C203.714 39.636 203.645 39.857 203.508 40.0502C203.37 40.2434 203.178 40.3954 202.931 40.5064C202.686 40.6154 202.402 40.6699 202.079 40.6699C201.648 40.6699 201.293 40.5733 201.014 40.3801C200.735 40.185 200.556 39.9038 200.478 39.5366L200.968 39.4161C201.031 39.6781 201.155 39.8761 201.338 40.01C201.524 40.1439 201.768 40.2109 202.07 40.2109C202.409 40.2109 202.679 40.1353 202.882 39.9842C203.085 39.8311 203.186 39.6399 203.186 39.4103C203.186 39.2324 203.127 39.0832 203.008 38.9627C202.89 38.8403 202.71 38.7504 202.469 38.693L201.749 38.5208C201.366 38.429 201.083 38.2836 200.899 38.0847C200.716 37.8857 200.624 37.639 200.624 37.3444C200.624 37.1015 200.69 36.8882 200.822 36.7045C200.954 36.519 201.136 36.3736 201.367 36.2684C201.599 36.1632 201.863 36.1106 202.159 36.1106C202.563 36.1106 202.885 36.2024 203.126 36.3861C203.369 36.5678 203.544 36.8184 203.651 37.1378ZM206.568 36.1709V36.6156H204.465V36.1709H206.568ZM205.122 35.1149H205.636V39.4275C205.636 39.6112 205.668 39.7556 205.731 39.8608C205.794 39.9641 205.876 40.0377 205.977 40.0817C206.079 40.1238 206.187 40.1449 206.302 40.1449C206.369 40.1449 206.426 40.141 206.474 40.1334C206.522 40.1238 206.564 40.1143 206.6 40.1047L206.709 40.5666C206.659 40.5858 206.598 40.603 206.525 40.6183C206.453 40.6355 206.363 40.6441 206.256 40.6441C206.068 40.6441 205.887 40.603 205.713 40.5207C205.541 40.4385 205.4 40.3161 205.289 40.1535C205.178 39.9909 205.122 39.7891 205.122 39.548V35.1149ZM210.611 37.1378L210.143 37.2698C210.097 37.1378 210.032 37.0183 209.948 36.9111C209.864 36.804 209.754 36.7189 209.618 36.6558C209.484 36.5926 209.318 36.5611 209.119 36.5611C208.82 36.5611 208.575 36.6319 208.384 36.7734C208.193 36.915 208.097 37.0976 208.097 37.3214C208.097 37.5108 208.162 37.6648 208.292 37.7834C208.424 37.9001 208.627 37.9929 208.901 38.0617L209.566 38.2253C209.935 38.3152 210.212 38.4577 210.395 38.6528C210.581 38.8479 210.674 39.0928 210.674 39.3874C210.674 39.636 210.605 39.857 210.467 40.0502C210.329 40.2434 210.137 40.3954 209.89 40.5064C209.646 40.6154 209.362 40.6699 209.038 40.6699C208.608 40.6699 208.253 40.5733 207.974 40.3801C207.694 40.185 207.516 39.9038 207.437 39.5366L207.928 39.4161C207.991 39.6781 208.114 39.8761 208.298 40.01C208.484 40.1439 208.727 40.2109 209.03 40.2109C209.368 40.2109 209.639 40.1353 209.842 39.9842C210.044 39.8311 210.146 39.6399 210.146 39.4103C210.146 39.2324 210.086 39.0832 209.968 38.9627C209.849 38.8403 209.669 38.7504 209.428 38.693L208.708 38.5208C208.326 38.429 208.043 38.2836 207.859 38.0847C207.675 37.8857 207.583 37.639 207.583 37.3444C207.583 37.1015 207.649 36.8882 207.781 36.7045C207.913 36.519 208.095 36.3736 208.327 36.2684C208.558 36.1632 208.822 36.1106 209.119 36.1106C209.522 36.1106 209.845 36.2024 210.086 36.3861C210.328 36.5678 210.504 36.8184 210.611 37.1378Z" fill="#00050B" fill-opacity="0.3"/>
</g>
<defs>
<filter id="filter0_f_11497_72165" x="254.22" y="13.0781" width="71" height="33" filterUnits="userSpaceOnUse" color-interpolation-filters="sRGB">
<feFlood flood-opacity="0" result="BackgroundImageFix"/>
<feBlend mode="normal" in="SourceGraphic" in2="BackgroundImageFix" result="shape"/>
<feGaussianBlur stdDeviation="1.25" result="effect1_foregroundBlur_11497_72165"/>
</filter>
<filter id="filter1_f_11497_72165" x="-8" y="52" width="91" height="51" filterUnits="userSpaceOnUse" color-interpolation-filters="sRGB">
<feFlood flood-opacity="0" result="BackgroundImageFix"/>
<feBlend mode="normal" in="SourceGraphic" in2="BackgroundImageFix" result="shape"/>
<feGaussianBlur stdDeviation="1" result="effect1_foregroundBlur_11497_72165"/>
</filter>
<filter id="filter2_f_11497_72165" x="219" y="52" width="142" height="51" filterUnits="userSpaceOnUse" color-interpolation-filters="sRGB">
<feFlood flood-opacity="0" result="BackgroundImageFix"/>
<feBlend mode="normal" in="SourceGraphic" in2="BackgroundImageFix" result="shape"/>
<feGaussianBlur stdDeviation="1" result="effect1_foregroundBlur_11497_72165"/>
</filter>
<linearGradient id="paint0_linear_11497_72165" x1="349.714" y1="200" x2="485.928" y2="200" gradientUnits="userSpaceOnUse">
<stop stop-color="#FAFAFA"/>
<stop offset="1" stop-color="#FAFAFA" stop-opacity="0"/>
</linearGradient>
</defs>
</svg>
